<svg id="Lager_1" data-name="Lager 1" xmlns="http://www.w3.org/2000/svg" viewBox="0 0 200 115.86"><defs><style>.cls-1{font-size:60px;fill:#1d1d1b;font-family:Bauhaus93, "Bauhaus 93";}.cls-2{fill:#010101;}</style></defs><text class="cls-1" transform="translate(12.21 85.87)">VÄDER</text><text y="-9.97"/><path class="cls-2" d="M168.69,19.83A10.15,10.15,0,1,0,178.84,30,10.16,10.16,0,0,0,168.69,19.83Z" transform="translate(0 -9.97)"/><path class="cls-2" d="M183.81,30l3.72-5a1.31,1.31,0,0,0-.66-2l-5.94-1.86.07-6.22a1.34,1.34,0,0,0-.54-1.08,1.32,1.32,0,0,0-1.2-.18l-5.9,2-3.6-5.08a1.3,1.3,0,0,0-1.07-.55,1.29,1.29,0,0,0-1.07.55L164,15.6l-5.9-2a1.32,1.32,0,0,0-1.2.18,1.34,1.34,0,0,0-.54,1.08l.07,6.22L150.51,23a1.31,1.31,0,0,0-.66,2l3.72,5-3.72,5a1.3,1.3,0,0,0-.2,1.19,1.33,1.33,0,0,0,.86.85l5.94,1.85-.07,6.23a1.34,1.34,0,0,0,.54,1.08,1.32,1.32,0,0,0,1.2.18l5.9-2,3.6,5.08a1.31,1.31,0,0,0,1.07.55,1.33,1.33,0,0,0,1.07-.55l3.6-5.08,5.9,2a1.32,1.32,0,0,0,1.2-.18A1.34,1.34,0,0,0,181,45.1l-.07-6.23L186.87,37a1.33,1.33,0,0,0,.86-.85,1.3,1.3,0,0,0-.2-1.19ZM168.69,42.76A12.78,12.78,0,1,1,181.47,30,12.79,12.79,0,0,1,168.69,42.76Z" transform="translate(0 -9.97)"/></svg>