<?xml version="1.0" encoding="utf-8"?>
<!-- Generator: Adobe Illustrator 25.0.0, SVG Export Plug-In . SVG Version: 6.00 Build 0)  -->
<svg version="1.0" id="Lager_1" xmlns="http://www.w3.org/2000/svg" xmlns:xlink="http://www.w3.org/1999/xlink" x="0px" y="0px"
	 viewBox="0 0 200 115.9" style="enable-background:new 0 0 200 115.9;" xml:space="preserve">
<style type="text/css">
	.st0{enable-background:new    ;}
	.st1{fill:#1D1D1B;}
	.st2{fill:none;}
	.st3{fill:#2D519F;stroke:#FFFFFF;stroke-width:3;stroke-miterlimit:10;}
</style>
<g class="st0">
	<path class="st1" d="M38,36L18.8,82.6L-0.3,36h15.2l4,13.8L23.4,36H38z"/>
	<path class="st1" d="M56.9,58v11.6h-3.8v10.5H40V52c0-5.4,1.5-9.6,4.4-12.6c3-3,7.1-4.5,12.5-4.5c5.2,0,9,1.4,11.5,4.1
		c2.5,2.7,3.7,6.9,3.7,12.6v28.5H59V52.5c0-1.7-0.2-2.9-0.6-3.6c-0.4-0.7-1.1-1-2.2-1c-2,0-3.1,1.5-3.1,4.6V58H56.9z M48.5,21.6
		c1.6,0,3,0.6,4.1,1.7c1.1,1.1,1.7,2.5,1.7,4.1c0,1.6-0.6,3-1.7,4.1c-1.1,1.1-2.5,1.7-4.1,1.7c-1.6,0-3-0.6-4.1-1.7
		c-1.1-1.1-1.7-2.5-1.7-4.1c0-1.6,0.6-3,1.7-4.1C45.5,22.2,46.9,21.6,48.5,21.6z M63.6,21.6c1.6,0,3,0.6,4.1,1.7
		c1.1,1.1,1.7,2.5,1.7,4.1c0,1.6-0.6,3-1.7,4.1c-1.1,1.1-2.5,1.7-4.1,1.7c-1.6,0-3-0.6-4.1-1.7c-1.1-1.1-1.7-2.5-1.7-4.1
		c0-1.6,0.6-3,1.7-4.1C60.6,22.2,62,21.6,63.6,21.6z"/>
	<path class="st1" d="M93.1,48.7v31.4H80V36h17.1c7.5,0,13.4,1.7,17.6,5.1c5,4.1,7.6,9.6,7.6,16.6c0,6.7-2.2,12.1-6.5,16.3
		c-4.3,4.2-9.9,6.3-16.6,6.3c-0.8,0-2.1,0-3.9-0.1v-13h2.1c7.6,0,11.5-3.2,11.5-9.6c0-6-3.8-9-11.3-9H93.1z"/>
	<path class="st1" d="M152,53.1V63h-8.6c-1.2,0-2,0.2-2.5,0.5c-0.5,0.3-0.7,0.9-0.7,1.7c0,0.9,0.2,1.5,0.7,1.8s1.5,0.4,3,0.4h8.8
		v12.6h-10.3c-4.8,0-8.5-1.2-11.1-3.5c-2.6-2.3-3.8-5.7-3.8-10V49.3c0-4.2,1.2-7.5,3.6-9.8S137,36,141.4,36h11.4v12.7h-8.4
		c-2.3,0-3.4,0.7-3.4,2.2c0,0.9,0.3,1.5,0.8,1.8s1.5,0.5,2.9,0.5H152z"/>
	<path class="st1" d="M173.5,47.8v32.2h-13.1V36h16.8c5.1,0,9.1,1.3,11.9,3.8c3.1,2.8,4.7,6.5,4.7,10.8c0,4.5-1.9,8.2-5.8,11.3
		l7.6,18.2h-13.8l-6.4-14.2V54.5h1c2.8,0,4.1-1.2,4.1-3.6c0-2.1-1.6-3.1-4.8-3.1H173.5z"/>
</g>
<g>
	<rect x="55.5" y="60.9" class="st2" width="144.5" height="56.1"/>
	<path class="st3" d="M71,60.8v7.8c-0.6-0.2-1-0.3-1.4-0.3c-0.6,0-1.1,0.2-1.6,0.7c-0.4,0.5-0.7,1-0.7,1.6c0,0.5,0.2,1.2,0.7,2.1
		l0.6,1.1c1.1,1.9,1.7,3.8,1.7,5.6c0,2.6-0.9,4.9-2.8,6.7c-1.9,1.8-4.2,2.8-6.9,2.8c-1.3,0-2.6-0.3-3.9-0.9V80
		c0.8,0.5,1.5,0.7,2.1,0.7c0.7,0,1.3-0.2,1.8-0.6c0.5-0.4,0.7-0.9,0.7-1.5c0-0.4-0.4-1.3-1.1-2.6c-1.2-2.1-1.8-4.2-1.8-6.4
		c0-2.6,0.9-4.8,2.7-6.6s4-2.8,6.5-2.8C68.8,60.2,69.9,60.4,71,60.8z"/>
	<path class="st3" d="M103.3,60.9v19.6c0,2.4-0.7,4.4-2.2,6c-1.5,1.5-3.4,2.3-5.7,2.3c-2.8,0-5-1.3-6.5-3.8c-0.9,1.4-1.9,2.4-2.9,3
		c-1,0.6-2.3,0.9-3.9,0.9c-2.4,0-4.3-0.8-5.6-2.3c-1.3-1.5-2-3.8-2-6.7V60.9h8.1v17.7c0,0.9,0.1,1.5,0.2,1.7
		c0.1,0.3,0.4,0.4,0.8,0.4c0.8,0,1.2-0.7,1.2-2V60.9H93v17.7c0,0.9,0.1,1.4,0.2,1.7c0.1,0.3,0.4,0.4,0.9,0.4c0.8,0,1.2-0.7,1.2-2.2
		V60.9H103.3z"/>
	<path class="st3" d="M122.7,71.5v6.1h-5.3c-0.7,0-1.2,0.1-1.5,0.3c-0.3,0.2-0.4,0.6-0.4,1.1c0,0.6,0.2,0.9,0.5,1.1
		c0.3,0.2,0.9,0.3,1.9,0.3h5.4v7.8h-6.4c-3,0-5.3-0.7-6.9-2.1c-1.6-1.4-2.4-3.5-2.4-6.2V69.1c0-2.6,0.7-4.6,2.2-6.1s3.6-2.2,6.3-2.2
		h7v7.8h-5.2c-1.4,0-2.1,0.5-2.1,1.4c0,0.5,0.2,0.9,0.5,1.1c0.3,0.2,0.9,0.3,1.8,0.3H122.7z"/>
	<path class="st3" d="M136,68.7v19.4h-8.1V60.9h10.5c4.6,0,8.2,1,10.9,3.1c3.1,2.5,4.7,5.9,4.7,10.2c0,4.1-1.3,7.5-4,10.1
		c-2.7,2.6-6.1,3.9-10.3,3.9c-0.5,0-1.3,0-2.4-0.1v-8h1.3c4.7,0,7.1-2,7.1-5.9c0-3.7-2.3-5.6-7-5.6H136z"/>
	<path class="st3" d="M172.3,71.5v6.1H167c-0.7,0-1.2,0.1-1.5,0.3c-0.3,0.2-0.4,0.6-0.4,1.1c0,0.6,0.2,0.9,0.5,1.1
		c0.3,0.2,0.9,0.3,1.9,0.3h5.4v7.8h-6.4c-3,0-5.3-0.7-6.9-2.1s-2.4-3.5-2.4-6.2V69.1c0-2.6,0.7-4.6,2.2-6.1c1.5-1.4,3.6-2.2,6.3-2.2
		h7v7.8h-5.2c-1.4,0-2.1,0.5-2.1,1.4c0,0.5,0.2,0.9,0.5,1.1c0.3,0.2,0.9,0.3,1.8,0.3H172.3z"/>
	<path class="st3" d="M176.9,88.1V70.4c0-3.1,0.9-5.6,2.8-7.4s4.3-2.8,7.4-2.8c3.1,0,5.4,0.9,7,2.7c1.6,1.8,2.4,4.4,2.4,7.8v17.4
		h-8.1V70.7c0-1.7-0.6-2.5-1.8-2.5c-1.1,0-1.7,0.8-1.7,2.5v17.4H176.9z"/>
</g>
</svg>
