<svg id="Capa_1" data-name="Capa 1" xmlns="http://www.w3.org/2000/svg" viewBox="0 0 195.44 301.33"><defs><style>.cls-1{fill:none;stroke:#000;stroke-miterlimit:10;stroke-width:8px;}</style></defs><path class="cls-1" d="M146.67,0A93.64,93.64,0,0,0,73.84,152.6c4.2,5.18,11.23,13.33,14.9,18.91,21.11,32.06,48.19,78.64,56.08,116.86,1.36,6.53,3,6.64,4.74.21a422.73,422.73,0,0,1,50.38-112.76c3.6-5.61,10.89-13.48,15.41-18.37a94.59,94.59,0,0,0,16.15-24.09A93.56,93.56,0,0,0,146.67,0Zm0,144.36A52.31,52.31,0,1,1,199,92,52.32,52.32,0,0,1,146.67,144.36Z" transform="translate(-48.95 4)"/><circle class="cls-1" cx="97.72" cy="94.2" r="21.76"/></svg>